<svg xmlns="http://www.w3.org/2000/svg" width="107" height="19" viewBox="0 0 107 19">
  <title>Mirra</title>
  <defs>
      <linearGradient id="a" x1="21.681%" x2="106.199%" y1="78.353%" y2="-2.781%">
          <stop offset="0%" stop-color="#21D3C4"/>
          <stop offset="100%" stop-color="#00A19A"/>
      </linearGradient>
  </defs>
  <path fill="url(#a)" fill-rule="evenodd" d="M19.88 3.187c-.679 1.433-1.818 3.955-2.923 6.243-.538 1.11-1.21 1.81-2.016 1.81-.81 0-1.45-.688-1.989-1.8-1.04-2.145-2.191-4.695-2.93-6.253C8.904.822 7.482 0 5.736 0 2.887 0 .01 1.7.01 5.878L0 17.288s-.04.489.368.906c.408.419 1.285.812 2.518.802 1.235-.007 1.976-.37 2.448-.802.472-.431.402-.905.402-.905V5.874c0-.555-.265-1.556 1.046-1.556 1.097 0 1.26.884 1.531 1.536.27.654 2.804 5.907 3.353 7.003.473.946 1.537 1.98 3.28 1.98 1.742 0 2.81-.987 3.288-1.98.535-1.11 3.082-6.349 3.353-7.003.27-.652.245-1.536 1.345-1.536 1.311 0 1.231 1.001 1.231 1.556v11.415s-.072.474.401.905c.473.432 1.214.795 2.448.802 1.235.01 2.112-.383 2.519-.802.408-.417.367-.905.367-.905L29.89 5.878C29.89 1.699 27.013 0 24.164 0c-1.747 0-3.166.822-4.284 3.187M40.258.003c-1.234.01-1.976.37-2.448.803-.472.433-.4.907-.4.907v15.58s-.072.472.4.905c.472.43 1.214.794 2.448.802 1.235.01 2.112-.386 2.519-.802.408-.42.359-.904.359-.904V1.71s.049-.485-.36-.903c-.402-.412-1.265-.804-2.479-.804h-.039m49.877.574c-.858.172-1.661.758-1.54 1.65.116.87.824 1.528 2.485 1.088.88-.235 3.124-1.425 6.265-1.02 2.29.297 3.938 1.53 3.97 4.362.011.933-.024 2.06-.024 2.06s-2.215-2.272-6.26-2.272c-4.131 0-8.998 1.658-8.998 6.103 0 4.442 4.957 6.412 9.024 6.412 4.044 0 6.26-2.38 6.26-2.38s-.002.322-.002.973c0 .653 1.213 1.426 2.857 1.426 1.678 0 2.828-.817 2.828-1.542V7.784c0-3.595-1.797-7.324-9.7-7.747-.391-.021-.787-.03-1.183-.03-2.532 0-5.047.381-5.982.569m1.004 12.062c0-2.173 1.52-3.937 5.07-3.937 3.554 0 4.727 1.367 5.078 3.187.06.297.064 1.19 0 1.495-.351 1.82-1.514 3.326-5.077 3.326-3.563 0-5.07-1.895-5.07-4.07M72.652.012c-1.237.008-1.978.372-2.45.806-.472.429-.403.902-.403.902v15.55s-.069.474.402.905c.473.432 1.214.794 2.451.803 1.233.01 2.11-.384 2.516-.803.408-.418.358-1.152.358-1.152l-.004-9.097c0-1.737.618-2.917 1.942-3.957 1.195-.932 3.008-1.398 5.185-.617 1.807.647 3.113-1.243 1.745-2.315C83.323.203 80.676.155 78.75.696c-2.045.576-3.218 2.201-3.218 2.201l-.005-1.176s.05-.486-.358-.902c-.402-.416-1.267-.806-2.483-.806h-.033m-18.378 0C53.042.02 52.3.385 51.828.819c-.473.429-.4.902-.4.902v15.55s-.073.474.4.905c.472.432 1.214.794 2.447.803 1.235.01 2.112-.384 2.52-.803.407-.418.357-1.152.357-1.152l-.003-9.097c0-1.737.618-2.917 1.941-3.957 1.194-.932 3.007-1.398 5.185-.617C66.08 4 67.388 2.11 66.019 1.038 64.95.203 62.3.155 60.377.696c-2.048.576-3.22 2.201-3.22 2.201l-.005-1.176s.05-.486-.358-.902C56.39.403 55.525.013 54.31.013h-.034"/>
</svg>
