<svg xmlns="http://www.w3.org/2000/svg" width="33" height="33" viewBox="0 0 33 33">
    <path fill="#60DBD0" fill-rule="evenodd" d="M26.575 24.684c-.044-.022-.087-.044-.134-.061l-7.917-2.742c.39-.482.69-1.036.853-1.645a4.344 4.344 0 0 0 .095-1.785c-.187-1.176-.853-2.209-1.81-2.92l3.41-6.505a5.116 5.116 0 0 0 1.688.11l5.21 14.496c-.109.047-.216.099-.323.157a3.482 3.482 0 0 0-1.072.895zm-13.467 2.72c-.052.003-.1.014-.149.025a3.268 3.268 0 0 0-.9-1.241c.027-.038.056-.074.077-.116l1.317-2.513c.61.144 1.251.19 1.898.1a5.105 5.105 0 0 0 1.318-.372l8.926 3.094-12.487 1.022zm-3.949-2.069c-.013-.045-.026-.09-.047-.133l-2.146-4.475c-.021-.044-.049-.083-.075-.122a3.42 3.42 0 0 0 .534-.536c.044.022.086.044.134.06l2.665.923c.071.143.139.287.227.424.309.485.712.893 1.168 1.232L10.3 25.222c-.022.042-.036.087-.052.13a3.794 3.794 0 0 0-1.089-.017zm8.23-5.567c-.279 1.05-1.196 1.83-2.335 1.989-1.133.157-2.258-.341-2.848-1.265a2.544 2.544 0 0 1 .152-2.956c.684-.866 1.858-1.258 2.97-.998a2.826 2.826 0 0 1 1.744 1.213c.188.297.316.629.371.981.053.335.039.689-.055 1.036zm1.73-11.523c.06-.045.085-.007.061.04l-3.35 6.39-.005-.002c-1.918-.45-3.933.23-5.11 1.72a4.395 4.395 0 0 0-.948 2.452l-1.503-.52c-.046-.016-.093-.024-.14-.033a3.149 3.149 0 0 0-.267-1.506c.043-.024.086-.048.126-.078L19.12 8.245zM19.97 3c.683-.865 1.856-1.257 2.97-.995a2.808 2.808 0 0 1 1.743 1.212c.188.296.316.63.372.98.052.337.038.687-.056 1.036-.279 1.048-1.194 1.83-2.333 1.988-1.136.16-2.258-.339-2.85-1.263a2.545 2.545 0 0 1 .153-2.958zM32.52 25.01c-.564-.915-1.517-1.483-2.548-1.631a.914.914 0 0 0-.048-.315L24.7 8.536c1.115-.612 1.96-1.617 2.285-2.835.16-.603.185-1.207.096-1.784-.29-1.832-1.733-3.33-3.647-3.78-1.918-.45-3.932.229-5.11 1.72a4.334 4.334 0 0 0-.402 4.827L6.694 15.218c-.039.03-.071.064-.105.098a3.76 3.76 0 0 0-3.81-.144c-1.703.925-2.285 2.97-1.299 4.571.747 1.214 2.178 1.82 3.57 1.64.013.045.025.089.046.131l2.149 4.48c.02.043.047.081.073.12-1.276 1.028-1.635 2.794-.76 4.214.985 1.602 3.166 2.147 4.87 1.221.92-.499 1.51-1.326 1.706-2.232.05.003.1.006.15.003l12.737-1.04c.089-.006.171-.027.251-.054.025.045.048.092.075.136.987 1.598 3.168 2.147 4.872 1.22 1.705-.924 2.287-2.973 1.302-4.573z"/>
</svg>
